<mxfile host="app.diagrams.net" agent="Mozilla/5.0 (Windows NT 10.0; Win64; x64) AppleWebKit/537.36 (KHTML, like Gecko) Chrome/130.0.0.0 Safari/537.36" version="24.8.6">
  <diagram name="Page-1" id="vyYTy78GMfVn04K5CFpW">
    <mxGraphModel dx="954" dy="699" grid="1" gridSize="10" guides="1" tooltips="1" connect="1" arrows="1" fold="1" page="1" pageScale="1" pageWidth="850" pageHeight="1100" math="0" shadow="0">
      <root>
        <mxCell id="0" />
        <mxCell id="1" parent="0" />
        <mxCell id="szXnB6LLasEgux_v4aL4-6" value="" style="verticalLabelPosition=bottom;verticalAlign=top;html=1;shape=mxgraph.basic.cone;rotation=-100;" vertex="1" parent="1">
          <mxGeometry x="300" y="120" width="100" height="270" as="geometry" />
        </mxCell>
        <mxCell id="szXnB6LLasEgux_v4aL4-7" value="" style="ellipse;whiteSpace=wrap;html=1;rotation=75;fillColor=#f8cecc;strokeColor=#b85450;" vertex="1" parent="1">
          <mxGeometry x="321.39" y="234.72" width="57.22" height="40.55" as="geometry" />
        </mxCell>
        <mxCell id="szXnB6LLasEgux_v4aL4-8" value="" style="ellipse;whiteSpace=wrap;html=1;rotation=75;fillColor=#f8cecc;strokeColor=#b85450;" vertex="1" parent="1">
          <mxGeometry x="410" y="200" width="100" height="70" as="geometry" />
        </mxCell>
        <mxCell id="szXnB6LLasEgux_v4aL4-9" value="" style="curved=1;endArrow=classic;html=1;rounded=0;" edge="1" parent="1">
          <mxGeometry width="50" height="50" relative="1" as="geometry">
            <mxPoint x="378.61" y="310" as="sourcePoint" />
            <mxPoint x="358.61" y="270" as="targetPoint" />
            <Array as="points">
              <mxPoint x="378.61" y="320" />
              <mxPoint x="378.61" y="300" />
              <mxPoint x="378.61" y="280" />
            </Array>
          </mxGeometry>
        </mxCell>
        <mxCell id="szXnB6LLasEgux_v4aL4-10" value="" style="curved=1;endArrow=classic;html=1;rounded=0;" edge="1" parent="1">
          <mxGeometry width="50" height="50" relative="1" as="geometry">
            <mxPoint x="500" y="300" as="sourcePoint" />
            <mxPoint x="480" y="260" as="targetPoint" />
            <Array as="points">
              <mxPoint x="500" y="310" />
              <mxPoint x="500" y="290" />
              <mxPoint x="500" y="270" />
            </Array>
          </mxGeometry>
        </mxCell>
        <mxCell id="szXnB6LLasEgux_v4aL4-14" value="" style="curved=1;endArrow=classic;html=1;rounded=0;" edge="1" parent="1">
          <mxGeometry width="50" height="50" relative="1" as="geometry">
            <mxPoint x="345" y="230" as="sourcePoint" />
            <mxPoint x="290" y="230" as="targetPoint" />
            <Array as="points">
              <mxPoint x="345" y="210" />
            </Array>
          </mxGeometry>
        </mxCell>
        <mxCell id="szXnB6LLasEgux_v4aL4-16" value="" style="curved=1;endArrow=classic;html=1;rounded=0;" edge="1" parent="1">
          <mxGeometry width="50" height="50" relative="1" as="geometry">
            <mxPoint x="220" y="280" as="sourcePoint" />
            <mxPoint x="250" y="220" as="targetPoint" />
            <Array as="points">
              <mxPoint x="200" y="240" />
            </Array>
          </mxGeometry>
        </mxCell>
        <mxCell id="szXnB6LLasEgux_v4aL4-17" value="" style="curved=1;endArrow=classic;html=1;rounded=0;" edge="1" parent="1">
          <mxGeometry width="50" height="50" relative="1" as="geometry">
            <mxPoint x="220" y="280" as="sourcePoint" />
            <mxPoint x="250" y="250" as="targetPoint" />
            <Array as="points">
              <mxPoint x="220" y="260" />
            </Array>
          </mxGeometry>
        </mxCell>
        <mxCell id="szXnB6LLasEgux_v4aL4-18" value="" style="curved=1;endArrow=classic;html=1;rounded=0;" edge="1" parent="1">
          <mxGeometry width="50" height="50" relative="1" as="geometry">
            <mxPoint x="448.61" y="190" as="sourcePoint" />
            <mxPoint x="270" y="210" as="targetPoint" />
            <Array as="points">
              <mxPoint x="448.61" y="170" />
            </Array>
          </mxGeometry>
        </mxCell>
        <mxCell id="szXnB6LLasEgux_v4aL4-19" value="&lt;font style=&quot;font-size: 20px;&quot;&gt;&lt;i&gt;r&lt;/i&gt;&lt;sub&gt;1&lt;/sub&gt;&lt;/font&gt;" style="text;html=1;align=center;verticalAlign=middle;whiteSpace=wrap;rounded=0;" vertex="1" parent="1">
          <mxGeometry x="240" y="230" width="60" height="30" as="geometry" />
        </mxCell>
        <mxCell id="szXnB6LLasEgux_v4aL4-20" value="&lt;font style=&quot;&quot;&gt;&lt;i style=&quot;&quot;&gt;&lt;span style=&quot;font-size: 20px;&quot;&gt;r&lt;/span&gt;&lt;span style=&quot;font-size: 16.6667px;&quot;&gt;&lt;sub&gt;2&lt;/sub&gt;&lt;/span&gt;&lt;/i&gt;&lt;/font&gt;" style="text;html=1;align=center;verticalAlign=middle;whiteSpace=wrap;rounded=0;" vertex="1" parent="1">
          <mxGeometry x="230" y="190" width="60" height="30" as="geometry" />
        </mxCell>
        <mxCell id="szXnB6LLasEgux_v4aL4-21" value="&lt;font style=&quot;font-size: 20px;&quot;&gt;d&lt;i&gt;S&lt;/i&gt;&lt;sub&gt;1&lt;/sub&gt;&lt;/font&gt;" style="text;html=1;align=center;verticalAlign=middle;whiteSpace=wrap;rounded=0;" vertex="1" parent="1">
          <mxGeometry x="370" y="310" width="60" height="30" as="geometry" />
        </mxCell>
        <mxCell id="szXnB6LLasEgux_v4aL4-22" value="&lt;font style=&quot;font-size: 20px;&quot;&gt;d&lt;i&gt;S&lt;/i&gt;&lt;sub&gt;2&lt;/sub&gt;&lt;/font&gt;" style="text;html=1;align=center;verticalAlign=middle;whiteSpace=wrap;rounded=0;" vertex="1" parent="1">
          <mxGeometry x="490" y="290" width="60" height="30" as="geometry" />
        </mxCell>
      </root>
    </mxGraphModel>
  </diagram>
</mxfile>
